<?xml version="1.0" ?><svg height="80.227844mm" viewBox="0 0 271.08429 80.227844" width="271.08429mm" xmlns="http://www.w3.org/2000/svg">
    <path color="#000" d="m 5335.2375,1536.6095 c -18.965,-7.4182 -26.9064,-23.0991 -2.7809,-29.6429 24.1255,-6.5438 60.0119,-7.1167 60.0119,-7.1167 21.3126,-2.8932 34.5716,1.6994 50.9986,3.3472 6.7491,-8.9084 93.2338,23.0516 107.5592,26.2052 24.2437,0.1159 41.3484,26.5068 11.4597,35.252 -29.8889,8.7451 -75.4927,6.3326 -114.8305,-1.1459 -39.3378,-7.4786 -112.418,-26.8989 -112.418,-26.8989 z" fill="#e4c47c" overflow="visible" paint-order="fill markers stroke" transform="translate(217.74389,-52.827695) translate(-5529.4416,-1440.8731)"/>
    <path d="m 5380.5691,1498.8756 c -3.7928,4.3088 -10.8969,14.3253 -10.5238,22.3831 0.373,8.0581 -0.4197,9.9745 2.9694,3.5673 3.3888,-6.4073 15.5752,-24.3277 15.5752,-24.3277 z m 53.9858,1.4408 c -3.6528,3.6232 -8.1605,14.7731 -9.3575,17.7668 -1.197,2.9938 18.2697,-14.8859 18.2697,-14.8859 z m 58.5346,11.2458 c -6.8398,1.3011 -13.4766,5.0362 -15.8083,7.4564 -2.3318,2.4201 -13.0112,8.925 -4.7104,6.3371 8.3008,-2.5881 35.3171,-9.1209 35.3171,-9.1209 z" fill="#8a6d3c" paint-order="markers stroke fill" transform="translate(217.74389,-52.827695) translate(-5529.4416,-1440.8731)"/>
    <path d="m 5311.7165,1523.2585 c -0.4698,-10.649 7.9011,-15.4222 21.5208,-19.9214 21.558,-7.1216 33.3547,-6.4225 46.4141,-9.5275 0.5015,-0.5915 4.0984,1.3689 6.401,2.5026 2.3024,1.1335 5.426,0.6092 7.7842,-0.3219 2.3581,-0.9312 6.9466,-1.6199 10.1965,-1.5305 10.8681,0.2992 35.7092,3.4332 37.2404,4.7255 0.8317,0.7029 4.6262,0.3612 7.3291,-0.068 9.5755,-1.5198 15.4604,-2.0846 56.8489,12.8824 7.0752,2.5587 17.2816,4.6809 23.7113,5.5589 6.4293,0.8783 14.1523,3.5946 17.7708,5.489 3.618,1.8943 9.8079,3.0923 13.0052,3.2101 24.0804,7.4361 27.1293,26.4072 18.3389,34.8483 -8.0076,7.4535 -22.1773,12.2448 -42.8736,12.3666 -7.5042,0.044 -24.7826,0.1883 -34.7437,0.4469 -9.9611,0.2586 -46.1288,-5.0455 -55.5008,-6.4559 -37.3256,-5.6173 -59.1177,-11.4995 -95.9229,-21.8193 -12.078,-3.2466 -24.7891,-8.0682 -28.3091,-10.2518 -5.5187,-3.4236 -8.9669,-6.597 -9.2111,-12.1342 z m 46.1174,18.0662 c 34.2465,9.7428 39.991,11.3118 43.8678,11.9821 1.7275,0.2989 11.5629,2.0803 21.856,3.9592 10.2929,1.8787 19.3577,3.2946 20.1438,3.1462 0.786,-0.1483 5.9048,0.824 11.3746,2.1607 19.8571,4.8526 41.1915,5.9408 72.8028,3.714 26.6145,-1.875 33.6319,-3.1167 40.1266,-7.1007 9.4035,-5.768 10.5147,-8.2024 6.929,-15.179 -4.2143,-8.1986 -9.9899,-11.7258 -20.6002,-12.5796 -13.0775,-1.0525 -19.9438,1.7778 -26.7284,11.0172 -2.9857,4.0659 -5.9841,6.9213 -6.6634,6.3453 -1.7285,-1.4658 2.6079,-17.4112 5.7396,-21.1043 3.0118,-3.5519 2.2199,-4.6837 -3.1714,-4.5322 -2.1361,0.06 -7.8792,-0.7581 -12.7629,-1.8179 -12.102,-2.6265 -32.0319,2.6012 -39.2174,10.2866 -2.8925,3.0938 -5.6978,5.0472 -6.2335,4.3407 -2.4134,-3.1827 8.8761,-19.1594 15.3426,-21.7129 5.6153,-2.2174 4.8017,-3.3391 -5.0174,-6.917 -19.4786,-7.0977 -37.1185,-2.1431 -48.3594,13.5828 -5.1226,7.1666 -6.2329,7.9834 -8.3788,6.1637 -1.8935,-1.6056 -1.3653,-3.8336 2.2508,-9.4971 6.1352,-9.6077 7.765,-13.2259 6.4574,-14.3348 -2.4591,-2.0853 -22.2139,-3.2176 -29.2428,-1.6763 -9.7264,2.1329 -18.3194,10.0602 -21.3926,19.7359 -2.8159,8.8659 -4.9741,11.6246 -7.4513,9.5242 -2.9291,-2.4842 -2.3844,-9.2913 1.5697,-19.6123 l 3.6262,-9.4643 -7.2308,0.4044 c -12.8152,0.7163 -42.1597,8.1389 -44.7855,11.3283 -2.8974,3.5189 -3.5596,9.1753 -1.5265,13.0367 2.2637,4.2993 8.2366,6.7096 36.6754,14.8004 z m 17.6297,-25.2353 c 1.3984,-3.0977 4.3098,-7.7164 6.4697,-10.2636 2.5877,-3.0513 3.1175,-4.7536 1.5529,-4.9897 -3.0022,-0.4529 -11.3349,11.6834 -11.387,16.5854 -0.055,5.192 0.5226,4.9632 3.3644,-1.3321 z m 60.2917,-8.6041 c 1.3028,-1.5366 1.4109,-2.9382 0.2399,-3.1149 -1.1709,-0.1758 -3.1949,0.936 -4.4977,2.4724 -1.303,1.5366 -1.4109,2.9382 -0.2402,3.1149 1.1709,0.1759 3.1949,-0.9358 4.498,-2.4724 z m 62.2526,8.7075 c 0.3414,-0.4027 0.019,-1.2459 -0.7257,-1.8739 -1.977,-1.6765 -16.9043,2.8422 -19.4997,5.9027 -1.4557,1.7168 1.5531,1.6007 8.689,-0.3353 6.0036,-1.6289 11.1948,-3.2909 11.5364,-3.6935 z" fill="#030303" transform="translate(217.74389,-52.827695) translate(-5529.4416,-1440.8731)"/>
</svg>